<svg width="26" height="21" viewBox="0 0 26 21" fill="none" xmlns="http://www.w3.org/2000/svg">
<path d="M2.42163 0.0625153C1.95808 0.0625153 1.50494 0.199974 1.11951 0.457508C0.734086 0.715043 0.433682 1.08109 0.256289 1.50935C0.0788964 1.93762 0.0324823 2.40887 0.122916 2.86351C0.213351 3.31815 0.436571 3.73577 0.76435 4.06355C1.09213 4.39133 1.50975 4.61455 1.96439 4.70498C2.41903 4.79541 2.89028 4.749 3.31855 4.57161C3.74681 4.39422 4.11285 4.09381 4.37039 3.70838C4.62792 3.32296 4.76538 2.86982 4.76538 2.40627C4.76538 1.78466 4.51845 1.18852 4.07891 0.748984C3.63937 0.309445 3.04323 0.0625153 2.42163 0.0625153ZM2.42163 7.87502C1.95808 7.87502 1.50494 8.01247 1.11951 8.27001C0.734086 8.52754 0.433682 8.89359 0.256289 9.32185C0.0788964 9.75012 0.0324823 10.2214 0.122916 10.676C0.213351 11.1307 0.436571 11.5483 0.76435 11.876C1.09213 12.2038 1.50975 12.427 1.96439 12.5175C2.41903 12.6079 2.89028 12.5615 3.31855 12.3841C3.74681 12.2067 4.11285 11.9063 4.37039 11.5209C4.62792 11.1355 4.76538 10.6823 4.76538 10.2188C4.76538 9.59716 4.51845 9.00102 4.07891 8.56148C3.63937 8.12194 3.04323 7.87502 2.42163 7.87502ZM2.42163 15.6875C1.95808 15.6875 1.50494 15.825 1.11951 16.0825C0.734086 16.34 0.433682 16.7061 0.256289 17.1344C0.0788964 17.5626 0.0324823 18.0339 0.122916 18.4885C0.213351 18.9432 0.436571 19.3608 0.76435 19.6885C1.09213 20.0163 1.50975 20.2395 1.96439 20.33C2.41903 20.4204 2.89028 20.374 3.31855 20.1966C3.74681 20.0192 4.11285 19.7188 4.37039 19.3334C4.62792 18.948 4.76538 18.4948 4.76538 18.0313C4.76538 17.4097 4.51845 16.8135 4.07891 16.374C3.63937 15.9344 3.04323 15.6875 2.42163 15.6875ZM24.2966 16.4688H8.67163C8.46443 16.4688 8.26572 16.5511 8.1192 16.6976C7.97269 16.8441 7.89038 17.0428 7.89038 17.25V18.8125C7.89038 19.0197 7.97269 19.2184 8.1192 19.3649C8.26572 19.5115 8.46443 19.5938 8.67163 19.5938H24.2966C24.5038 19.5938 24.7025 19.5115 24.8491 19.3649C24.9956 19.2184 25.0779 19.0197 25.0779 18.8125V17.25C25.0779 17.0428 24.9956 16.8441 24.8491 16.6976C24.7025 16.5511 24.5038 16.4688 24.2966 16.4688ZM24.2966 0.843765H8.67163C8.46443 0.843765 8.26572 0.926075 8.1192 1.07259C7.97269 1.2191 7.89038 1.41781 7.89038 1.62502V3.18752C7.89038 3.39472 7.97269 3.59343 8.1192 3.73994C8.26572 3.88646 8.46443 3.96877 8.67163 3.96877H24.2966C24.5038 3.96877 24.7025 3.88646 24.8491 3.73994C24.9956 3.59343 25.0779 3.39472 25.0779 3.18752V1.62502C25.0779 1.41781 24.9956 1.2191 24.8491 1.07259C24.7025 0.926075 24.5038 0.843765 24.2966 0.843765ZM24.2966 8.65627H8.67163C8.46443 8.65627 8.26572 8.73858 8.1192 8.88509C7.97269 9.0316 7.89038 9.23031 7.89038 9.43752V11C7.89038 11.2072 7.97269 11.4059 8.1192 11.5524C8.26572 11.699 8.46443 11.7813 8.67163 11.7813H24.2966C24.5038 11.7813 24.7025 11.699 24.8491 11.5524C24.9956 11.4059 25.0779 11.2072 25.0779 11V9.43752C25.0779 9.23031 24.9956 9.0316 24.8491 8.88509C24.7025 8.73858 24.5038 8.65627 24.2966 8.65627Z" fill="black"/>
</svg>
